<svg xmlns="http://www.w3.org/2000/svg" width="1000" height="1000"><path d="M0 0h1000v1000H0zm0 0" style="stroke:none;fill-rule:nonzero;fill:#ffd1b1;fill-opacity:1"/><path d="M490.352 239.914c.656 0 1.312 0 1.992-.004q2.078-.005 4.164-.004c1.402 0 2.8-.004 4.203-.008 8.144-.039 16.2.067 24.289 1.102.59.074 1.184.145 1.79.223 27.73 3.691 54.628 15.476 76.21 33.277.27.223.543.441.82.672 4.258 3.488 8.215 7.262 12.117 11.14.653.645.653.645 1.313 1.301 4.035 4.051 7.637 8.422 11 13.043l.7.961a150 150 0 0 1 6.55 9.883c.227.371.453.746.688 1.129 8.195 13.523 13.707 27.89 16.812 43.371l.234 1.164A119.7 119.7 0 0 1 655.5 383l.93.223c9.379 2.351 17.449 8.664 22.57 16.777 4.098 7.012 6.07 13.605 6.082 21.727 0 .515.004 1.03.008 1.558l.012 5.09c0 .582.003 1.164.003 1.762q.011 4.629.016 9.258c0 3.171.016 6.34.027 9.507.012 2.453.012 4.907.012 7.356q.005 1.752.016 3.504c.082 16.11.082 16.11-3.457 23.082-.258.523-.258.523-.516 1.058-5.476 10.743-14.605 17.559-25.953 21.266-1.25.332-1.25.332-2.75.332l-.156 1.758c-.282 2.23-.953 4.105-1.875 6.148-.157.348-.309.696-.469 1.051-4.734 10.207-13.133 15.945-23 20.543-.559.258-1.113.52-1.687.79-2.208.866-4.418 1.437-6.72 1.991-.417.106-.84.207-1.269.317-8.383 2.054-8.383 2.054-11.886 1.965-.465-.008-.93-.02-1.41-.028L603 540l-.375.813C599.871 546.05 595.867 550.57 592 555c-.285.34-.57.684-.863 1.031-2.055 2.442-4.301 4.703-6.543 6.969l-1.016 1.035c-.32.32-.637.637-.96.965l-.872.875c-.746.625-.746.625-1.746.625V593l13.203-.086q4.729-.023 9.457-.039c4.059-.016 8.117-.031 12.18-.062 31.25-.243 31.25-.243 44.66 2.687l2.91.574c15.645 3.067 31.832 10.164 45.09 18.926.316.21.637.418.965.633 6.488 4.289 12.613 8.941 18.312 14.234A106 106 0 0 0 730 632.72c4.457 3.89 8.328 8.152 12 12.781l1.383 1.664c15.433 18.598 26.625 42.73 29.957 66.711.11.777.23 1.55.363 2.328 1.313 7.824 1.477 15.664 1.535 23.578q.012 1.774.035 3.547c.024 1.684.028 3.367.024 5.05l.023 1.536c-.03 3.293-.636 5.563-2.82 8.086-2.715 2.117-4.762 2.574-8.117 2.563q-.56.004-1.133.003c-1.266.004-2.531 0-3.793 0-.914 0-1.832.004-2.746.004q-3.796.005-7.598.004c-2.746 0-5.496.004-8.242.004q-8.189.007-16.379.008l-18.597.012q-24.2.011-48.399.02-7.845.001-15.691.003h-1.117q-2.24.005-4.477.004-38.291.013-76.582.02h-7.223q-6.047.002-12.09.003h-2.425c-25.961.004-51.918.016-77.88.032-18.648.011-37.3.023-55.949.027h-26.414q-5.078-.001-10.156.004h-1.125c-11.945 0-23.89.008-35.836.016-12.031.011-24.058.015-36.09.011q-11.201-.005-22.398.008-7.141.012-14.281 0c-2.715 0-5.43-.004-8.145.008q-3.698.01-7.402-.004-1.334-.001-2.668.004c-9.207.055-9.207.055-12.465-3.16l-.55-.875c-.192-.29-.38-.578-.579-.875-.84-1.563-1.016-2.86-1.027-4.598 0-.457-.004-.91-.008-1.383 0-.496 0-.988-.004-1.5q.001-.771-.004-1.566-.002-1.652-.004-3.3c0-1.645-.008-3.294-.02-4.938-.023-9.82.747-19.414 2.614-29.059.07-.367.14-.734.215-1.11 4.531-22.898 15.097-45.39 30.535-62.952 1.188-1.368 2.313-2.766 3.438-4.188 3.808-4.676 8.207-8.871 12.812-12.75.441-.39.883-.781 1.336-1.187 4.758-4.184 9.906-7.782 15.164-11.313l.898-.602c7.786-5.164 16.426-9.441 25.102-12.898.547-.219.547-.219 1.11-.441 8.011-3.164 16.093-5.278 24.546-6.903l1.559-.308c9.976-1.836 20.004-1.993 30.12-1.95 1.74.008 3.474.008 5.212.008q4.899.006 9.805.024 5.594.012 11.187.02c7.652.01 15.309.027 22.961.05.105-3.238.156-6.473.172-9.71q.018-1.65.07-3.298c.438-6.699.438-6.699-2.273-12.52-1.442-1.331-2.989-2.425-4.656-3.449-1.083-.695-1.97-1.535-2.868-2.445-.273-.27-.543-.539-.82-.816-.387-.39-.387-.39-.781-.793-.434-.438-.434-.438-.875-.887-2.504-2.559-4.778-5.254-6.969-8.082l-1.172-1.453C392.102 535.44 381.594 516.203 380 498c-.383.254-.766.508-1.156.77-4.125 2.648-8.211 4.609-12.844 6.23-.512.188-1.023.375-1.55.57-11.294 2.489-22.337-.05-31.95-6.07-9.594-6.555-14.926-16.184-17.273-27.297-.305-2.293-.301-4.555-.301-6.867 0-.516 0-1.027-.004-1.555q-.004-2.542-.008-5.086.001-1.772-.004-3.543-.005-3.72-.004-7.433c0-3.164-.004-6.332-.015-9.496q-.005-3.662-.004-7.325-.001-1.753-.008-3.5-.006-2.454 0-4.91a175 175 0 0 1-.008-1.441c.027-5.79 1.371-10.742 3.629-16.047l.45-1.09c3.952-8.742 11.527-15.082 19.988-19.129q.55-.264 1.117-.539c.527-.242.527-.242 1.066-.492l.95-.437C343 383 343 383 345 383c-.004-.46-.004-.922-.008-1.398q-.012-2.574-.02-5.141l-.011-2.227a873 873 0 0 1-.008-3.195l-.012-1.945C345 367.5 345 367.5 345.5 366q.122-1.223.203-2.453c1.176-13.793 6.195-27.707 12.297-40.047.195-.395.387-.79.586-1.195 4.687-9.422 10.305-18.118 16.914-26.305l.719-.895c5.96-7.375 12.746-14.34 20.281-20.105.75-.613.75-.613 1.516-1.242 7.148-5.824 14.906-10.903 23.035-15.242q1.404-.77 2.785-1.579c4.664-2.656 9.543-4.664 14.539-6.593.328-.13.656-.254.996-.387 6.281-2.422 12.625-4.441 19.192-5.957l1.664-.387c6.203-1.386 12.472-2.328 18.773-3.113.313-.043.621-.086.941-.133 3.47-.445 6.918-.449 10.41-.453m0 0" style="stroke:none;fill-rule:nonzero;fill:#ff6901;fill-opacity:1"/><path d="M477.758 369.988c1.535.633 2.844 1.426 4.242 2.325 17.172 10.628 36.496 18.597 56 23.687.676.18.676.18 1.367.367 18.238 4.88 36.43 7.14 55.219 8.438.969.07 1.937.136 2.906.207q3.504.247 7.008.488.07 15.016.105 30.031.012 6.975.047 13.95.03 6.087.035 12.175c.004 2.145.008 4.29.024 6.43.117 17.844-2.445 33.976-9.461 50.508-.172.426-.344.855-.52 1.297-.175.394-.347.789-.527 1.195l-.45 1.05c-1.187 1.364-2.526 1.622-4.253 1.864-2.258.133-4.512.129-6.773.117q-1.009-.005-2.012-.004c-1.406 0-2.817-.004-4.223-.011q-2.643-.01-5.285-.008c-8.746 0-17.473-.18-26.207-.594-.168-.414-.34-.828-.512-1.254-.226-.543-.449-1.086-.68-1.644-.218-.536-.44-1.075-.667-1.63-3.149-7.245-9.149-11.429-16.141-14.472-.41-.184-.82-.363-1.242-.55-6.715-2.481-14.43-1.16-20.738 1.73-7.383 3.77-11.836 9.718-14.582 17.43L490 524.5c-.102.309-.203.617-.305.934-1.347 7.425.008 15.968 4.106 22.304A49 49 0 0 0 496.5 551l.902 1.043c4.727 5.121 11.09 8.004 17.996 8.629 7.696.187 14.993-2.07 21.008-6.953 3.157-3.02 5.719-7.059 7.407-11.078L544.5 541c11.844-.07 23.664.105 35.5.5-1.91 2.664-3.922 5.098-6.25 7.406q-.45.45-.914.91c-3.082 3.004-6.387 5.625-9.836 8.184q-.84.64-1.68 1.273c-13.297 9.946-29.445 16.38-45.82 18.727-.363.059-.723.117-1.098.176-10.8 1.722-22.715 1.695-33.402-.676l-1.25-.262c-13.898-2.906-26.555-8.172-38.25-16.238-.477-.32-.953-.637-1.445-.969-21.606-14.687-37.625-38.363-42.688-64.07-.12-.649-.242-1.293-.367-1.961l-.32-1.57c-1.172-5.899-1.25-11.825-1.239-17.817.004-.773 0-1.55 0-2.324q.001-3.122.008-6.25.005-3.276.004-6.55c0-4.13.004-8.255.012-12.384l.012-14.109q.005-14.498.023-28.996c.348-.07.7-.137 1.059-.21l4.84-.962c.55-.11 1.101-.219 1.667-.328 23.856-4.754 49.305-12.992 68.395-28.586.316-.254.633-.512.96-.777a109 109 0 0 0 1.778-1.504c1.203-1.004 1.965-1.63 3.559-1.645M374.594 610.348c1.832.011 3.668.011 5.5.011q5.175.007 10.351.032c3.938.02 7.875.027 11.813.035 8.082.015 16.16.039 24.242.074l.586 1.82c.266.809.527 1.614.793 2.418.125.395.25.79.383 1.196 1.336 4.074 3.187 7.808 5.238 11.566.434.8.434.8.875 1.621 8.02 14.293 20.414 24.559 35.125 31.379.492.234.98.473 1.488.715 6.29 2.851 13.266 4.058 20.012 5.285v76H243c0-32.32 8.016-61.043 29-86 .227-.27.453-.543.688-.82 4.136-4.934 8.398-9.508 13.312-13.68l1.29-1.121c15.526-13.281 33.91-22.582 53.772-27.317l1.727-.414c10.559-2.382 21.016-2.867 31.805-2.8M577.5 610.5q11.939-.053 23.879-.078 5.541-.012 11.09-.035 4.838-.023 9.683-.028c1.703-.004 3.407-.007 5.11-.02 8.054-.046 15.793.321 23.738 1.661q1.803.287 3.605.563c23.075 3.726 45.032 16.14 61.895 31.937q1.044.908 2.094 1.813c3.894 3.402 7.203 7.132 10.406 11.187l1.203 1.5C749.602 683.582 757 711.496 757 742.5H509V667l11.5-2c21.348-5.824 38.367-17.656 49.672-36.984 2.234-3.965 3.945-8.004 5.465-12.297.18-.504.363-1.008.547-1.528q.661-1.845 1.316-3.691m0 0" style="stroke:none;fill-rule:nonzero;fill:#ffd1b1;fill-opacity:1"/><path d="M515.5 296.5c.414.055.828.113 1.254.172C538.867 299.75 560.84 311.562 576 328c.254.277.512.55.773.836.93 1.039 1.829 2.098 2.727 3.164.21.246.418.488.633.742C592.89 347.711 602.602 367.664 604 387.5c-17.219.363-34.234-1.629-51-5.5l-1.664-.379c-23.547-5.457-45.363-14.883-65.984-27.422-4.516-2.914-4.516-2.914-9.664-3.949-.442-.004-.88-.012-1.333-.016-2.949.579-4.976 2.778-7.074 4.797C450.594 370.648 419.895 386 396.5 386c-.187-3.27.508-6.207 1.281-9.375.137-.555.27-1.11.41-1.68 4.38-17.367 13.188-32.832 25.309-45.945l1.293-1.469c12.781-14.453 31.176-24.258 49.707-29.031.688-.195.688-.195 1.39-.398 12.782-3.52 26.563-3.559 39.61-1.602m0 0" style="stroke:none;fill-rule:nonzero;fill:#ffd1b1;fill-opacity:1"/><path d="M497.504 257.332q2.767.016 5.527.008c7.043.008 13.977.305 20.969 1.16.375.047.746.09 1.133.137 32.449 4.039 64.054 22.246 84.867 47.238.676.867 1.34 1.746 2 2.625q.64.825 1.273 1.645c12.989 16.992 20.332 36.394 23.727 57.355.063.375.121.746.188 1.133.417 2.863.367 5.73.343 8.617-.004.508-.004 1.012-.008 1.535a589 589 0 0 1-.023 3.715c-.566.11-.566.11-1.148.227-4.09.832-7.508 2.476-11.168 4.402C623.5 388 623.5 388 622 388.5c-.691-2.422-1.098-4.746-1.375-7.25-2.91-22.68-13.84-44.062-28.625-61.25-.348-.402-.348-.402-.7-.816C571.692 296.59 543.5 282.637 514 279q-.527-.07-1.07-.145c-32.239-3.859-64.028 6.555-89.39 26.278-12.33 9.875-22.185 21.668-30.04 35.367-.18.3-.355.605-.54.918-8.296 14.148-12.995 30.812-14.46 47.082-2.098-.652-3.988-1.453-5.937-2.469-3.325-1.687-6.356-2.96-10.063-3.531-.54-18.387 4.004-36.012 12-52.5.156-.328.316-.656.477-.996C380.48 317.695 388.3 307.524 397 298.5c.266-.277.535-.555.809-.844 3.535-3.66 7.168-7.031 11.191-10.156q.943-.756 1.879-1.512c5.262-4.175 10.766-7.707 16.621-10.988.45-.254.895-.504 1.355-.766C442.57 266.582 457.457 261.383 473 259q.596-.094 1.21-.187c7.786-1.176 15.427-1.536 23.294-1.481m0 0" style="stroke:none;fill-rule:nonzero;fill:#ffd1b0;fill-opacity:1"/><path d="M562 581.5h.5c.477 19.023-2.766 35.117-16 49.5-.402.441-.8.883-1.215 1.34-9.148 9.629-22.797 16.36-36.101 17.285-1.825.04-3.641.031-5.465 0-.606-.004-1.211-.004-1.836-.008-5.621-.047-11.164-.191-16.602-1.71-.406-.11-.808-.223-1.226-.337-14.696-4.18-27.532-14.215-35.098-27.527-6.793-12.473-7.727-24.168-7.457-38.043 1.918.61 3.71 1.293 5.508 2.195l1.41.696c.492.242.984.484 1.488.734 6.707 3.242 13.29 5.605 20.5 7.469.457.117.91.238 1.38.36 9.171 2.265 18.144 2.8 27.573 2.769 1.942-.004 3.88.011 5.82.027 19.973.055 38.696-4.816 56.321-14.25zM657.988 403.152c5.274 4.418 8.961 9.5 9.625 16.547.18 3.41.14 6.82.117 10.23v3.31c-.003 2.296-.011 4.597-.023 6.894-.02 2.937-.023 5.879-.02 8.816-.003 2.274-.007 4.543-.015 6.817q-.005 1.625-.004 3.25a881 881 0 0 1-.023 4.543c0 .445 0 .886.003 1.343-.066 6.434-2.21 12.391-6.648 17.098-5.258 4.863-11.234 6.793-18.332 6.656-4.953-.46-8.867-2.55-12.668-5.656l-.984-.793c-4.047-3.633-6.188-9.039-6.61-14.394-.039-1.274-.047-2.54-.043-3.81-.004-.48-.004-.956-.008-1.448a629 629 0 0 1-.003-4.703 2030.571 2030.571 0 0 1-.008-10.195q-.001-4.402-.02-8.798-.011-3.405-.004-6.808-.001-1.621-.008-3.242c-.039-8.645.032-16.204 6.223-22.934 8.16-7.719 20.004-9.71 29.453-2.723M369.5 404c4.273 3.465 7.512 8.715 8.14 14.238.055 1.352.067 2.692.063 4.043.004.508.004 1.016.008 1.54.012 1.667.008 3.335.008 5q.001 1.75.008 3.503.003 3.668-.004 7.328-.005 4.681.02 9.356.009 3.614.007 7.234c0 1.149 0 2.297.008 3.445.043 8.958-.528 15.81-6.883 22.657-4.906 4.644-10.477 6.469-17.148 6.297-5.872-.477-11.012-3.02-15.227-7.141-5.977-7.105-5.809-14.332-5.781-23.187l-.012-3.563c-.004-2.48-.004-4.965.004-7.445.008-3.168-.004-6.332-.02-9.5q-.015-3.677-.007-7.352c0-1.168 0-2.336-.008-3.5-.047-8.66.554-15.035 6.84-21.5 8.671-8.2 20.367-8.504 29.984-1.453m0 0" style="stroke:none;fill-rule:nonzero;fill:#ffd1b1;fill-opacity:1"/><path d="M521.73 520.844c2.965 1.367 4.875 3.543 6.176 6.531 1.14 3.465 1.043 6.5-.5 9.813-1.543 2.765-3.386 4.363-6.363 5.539-2.746.718-5.84.828-8.418-.477-2.594-1.77-4.637-4.078-5.844-6.969-.691-4.383-.433-7.547 2.219-11.281 3.703-3.496 7.691-4.559 12.73-3.156m0 0" style="stroke:none;fill-rule:nonzero;fill:#ffd0af;fill-opacity:1"/><path d="M620 498c1.73.64 3.203 1.402 4.75 2.406 2.922 1.797 6.027 2.953 9.25 4.094-1.441 5.086-5.105 8.633-9.578 11.25A84 84 0 0 1 617.5 519c-.434.2-.867.395-1.316.602C615 520 615 520 613.5 519.5c.188-.523.188-.523.383-1.059 2.414-6.746 4.715-13.406 6.117-20.441m0 0" style="stroke:none;fill-rule:nonzero;fill:#ffd0ae;fill-opacity:1"/></svg>